<svg xmlns="http://www.w3.org/2000/svg" xmlns:xlink="http://www.w3.org/1999/xlink" width="224" zoomAndPan="magnify" viewBox="0 0 168 61.499998" height="82" preserveAspectRatio="xMidYMid meet" version="1.0"><defs><g/><clipPath id="ea089beed4"><path d="M 0.675781 0 L 167.320312 0 L 167.320312 61.003906 L 0.675781 61.003906 Z M 0.675781 0 " clip-rule="nonzero"/></clipPath><clipPath id="8a05e4d858"><path d="M 0.675781 0 L 57 0 L 57 56 L 0.675781 56 Z M 0.675781 0 " clip-rule="nonzero"/></clipPath><clipPath id="0f881db27b"><path d="M 75.613281 12.0625 L 167.320312 12.0625 L 167.320312 42.65625 L 75.613281 42.65625 Z M 75.613281 12.0625 " clip-rule="nonzero"/></clipPath></defs><g clip-path="url(#ea089beed4)"><path fill="#ffffff" d="M 0.675781 0 L 167.324219 0 L 167.324219 61.003906 L 0.675781 61.003906 Z M 0.675781 0 " fill-opacity="1" fill-rule="nonzero"/><path fill="#ffffff" d="M 0.675781 0 L 167.324219 0 L 167.324219 61.003906 L 0.675781 61.003906 Z M 0.675781 0 " fill-opacity="1" fill-rule="nonzero"/></g><g clip-path="url(#8a05e4d858)"><path fill="#fa7275" d="M 28.511719 0 C 29.425781 0 30.335938 0.0429688 31.242188 0.132812 C 32.148438 0.222656 33.050781 0.355469 33.945312 0.535156 C 34.835938 0.710938 35.722656 0.933594 36.59375 1.199219 C 37.464844 1.464844 38.324219 1.769531 39.164062 2.117188 C 40.007812 2.46875 40.832031 2.855469 41.636719 3.285156 C 42.4375 3.714844 43.21875 4.183594 43.976562 4.691406 C 44.734375 5.199219 45.46875 5.738281 46.171875 6.320312 C 46.875 6.898438 47.550781 7.507812 48.195312 8.152344 C 48.839844 8.796875 49.453125 9.472656 50.03125 10.175781 C 50.609375 10.882812 51.152344 11.613281 51.65625 12.371094 C 52.164062 13.128906 52.632812 13.910156 53.0625 14.714844 C 53.492188 15.519531 53.882812 16.339844 54.230469 17.183594 C 54.578125 18.027344 54.886719 18.882812 55.148438 19.753906 C 55.414062 20.628906 55.636719 21.511719 55.8125 22.40625 C 55.992188 23.300781 56.125 24.199219 56.214844 25.105469 C 56.304688 26.015625 56.347656 26.925781 56.347656 27.835938 C 56.347656 28.746094 56.304688 29.65625 56.214844 30.5625 C 56.125 31.472656 55.992188 32.371094 55.8125 33.265625 C 55.636719 34.160156 55.414062 35.042969 55.148438 35.914062 C 54.886719 36.789062 54.578125 37.644531 54.230469 38.488281 C 53.882812 39.332031 53.492188 40.152344 53.0625 40.957031 C 52.632812 41.761719 52.164062 42.542969 51.65625 43.300781 C 51.152344 44.058594 50.609375 44.789062 50.03125 45.496094 C 49.453125 46.199219 48.839844 46.875 48.195312 47.519531 C 47.550781 48.164062 46.875 48.773438 46.171875 49.351562 C 45.46875 49.929688 44.734375 50.472656 43.976562 50.980469 C 43.21875 51.488281 42.4375 51.953125 41.632812 52.382812 C 40.832031 52.8125 40.007812 53.203125 39.164062 53.550781 C 38.324219 53.902344 37.464844 54.207031 36.59375 54.472656 C 35.722656 54.738281 34.835938 54.957031 33.945312 55.136719 C 33.050781 55.3125 32.148438 55.449219 31.242188 55.539062 C 30.335938 55.625 29.425781 55.671875 28.511719 55.671875 C 27.601562 55.671875 26.691406 55.625 25.785156 55.539062 C 24.878906 55.449219 23.976562 55.3125 23.082031 55.136719 C 22.1875 54.957031 21.304688 54.738281 20.433594 54.472656 C 19.558594 54.207031 18.703125 53.902344 17.859375 53.550781 C 17.019531 53.203125 16.195312 52.8125 15.390625 52.382812 C 14.585938 51.953125 13.804688 51.488281 13.046875 50.980469 C 12.289062 50.472656 11.558594 49.929688 10.855469 49.351562 C 10.148438 48.773438 9.476562 48.164062 8.832031 47.519531 C 8.1875 46.875 7.574219 46.199219 6.996094 45.496094 C 6.417969 44.789062 5.875 44.058594 5.367188 43.300781 C 4.863281 42.542969 4.394531 41.761719 3.964844 40.957031 C 3.535156 40.152344 3.144531 39.332031 2.796875 38.488281 C 2.449219 37.644531 2.140625 36.789062 1.875 35.914062 C 1.613281 35.042969 1.390625 34.160156 1.210938 33.265625 C 1.035156 32.371094 0.902344 31.472656 0.8125 30.5625 C 0.722656 29.65625 0.675781 28.746094 0.675781 27.835938 C 0.675781 26.925781 0.722656 26.015625 0.8125 25.105469 C 0.902344 24.199219 1.035156 23.300781 1.210938 22.40625 C 1.390625 21.511719 1.613281 20.628906 1.875 19.753906 C 2.140625 18.882812 2.449219 18.027344 2.796875 17.183594 C 3.144531 16.339844 3.535156 15.519531 3.964844 14.714844 C 4.394531 13.910156 4.863281 13.128906 5.367188 12.371094 C 5.875 11.613281 6.417969 10.882812 6.996094 10.175781 C 7.574219 9.472656 8.1875 8.796875 8.832031 8.152344 C 9.476562 7.507812 10.148438 6.898438 10.855469 6.320312 C 11.558594 5.738281 12.289062 5.199219 13.046875 4.691406 C 13.804688 4.183594 14.585938 3.714844 15.390625 3.285156 C 16.195312 2.855469 17.019531 2.46875 17.859375 2.117188 C 18.703125 1.769531 19.558594 1.464844 20.433594 1.199219 C 21.304688 0.933594 22.1875 0.710938 23.082031 0.535156 C 23.976562 0.355469 24.878906 0.222656 25.785156 0.132812 C 26.691406 0.0429688 27.601562 0 28.511719 0 Z M 28.511719 0 " fill-opacity="0.2" fill-rule="nonzero"/></g><path fill="#fa7275" d="M 43.589844 23.195312 C 44.199219 23.195312 44.804688 23.226562 45.410156 23.285156 C 46.015625 23.34375 46.613281 23.433594 47.210938 23.554688 C 47.804688 23.671875 48.394531 23.820312 48.976562 23.996094 C 49.558594 24.171875 50.128906 24.375 50.691406 24.609375 C 51.253906 24.839844 51.800781 25.101562 52.335938 25.386719 C 52.875 25.675781 53.394531 25.984375 53.898438 26.324219 C 54.40625 26.660156 54.894531 27.023438 55.363281 27.410156 C 55.832031 27.792969 56.28125 28.203125 56.710938 28.632812 C 57.140625 29.0625 57.550781 29.511719 57.933594 29.980469 C 58.320312 30.449219 58.683594 30.9375 59.019531 31.445312 C 59.355469 31.949219 59.667969 32.46875 59.957031 33.003906 C 60.242188 33.542969 60.503906 34.089844 60.734375 34.652344 C 60.96875 35.214844 61.171875 35.785156 61.347656 36.367188 C 61.523438 36.949219 61.671875 37.539062 61.789062 38.132812 C 61.910156 38.730469 62 39.328125 62.058594 39.933594 C 62.117188 40.539062 62.148438 41.144531 62.148438 41.753906 C 62.148438 42.359375 62.117188 42.96875 62.058594 43.574219 C 62 44.175781 61.910156 44.777344 61.789062 45.375 C 61.671875 45.96875 61.523438 46.558594 61.347656 47.140625 C 61.171875 47.722656 60.96875 48.292969 60.734375 48.855469 C 60.503906 49.417969 60.242188 49.964844 59.957031 50.5 C 59.667969 51.039062 59.355469 51.558594 59.019531 52.0625 C 58.683594 52.570312 58.320312 53.054688 57.933594 53.527344 C 57.550781 53.996094 57.140625 54.445312 56.710938 54.875 C 56.28125 55.304688 55.832031 55.710938 55.363281 56.097656 C 54.894531 56.484375 54.40625 56.84375 53.898438 57.183594 C 53.394531 57.519531 52.875 57.832031 52.335938 58.121094 C 51.800781 58.40625 51.253906 58.664062 50.691406 58.898438 C 50.128906 59.128906 49.558594 59.335938 48.976562 59.511719 C 48.394531 59.6875 47.804688 59.835938 47.210938 59.953125 C 46.613281 60.074219 46.015625 60.160156 45.410156 60.222656 C 44.804688 60.28125 44.199219 60.3125 43.589844 60.3125 C 42.980469 60.3125 42.375 60.28125 41.769531 60.222656 C 41.167969 60.160156 40.566406 60.074219 39.96875 59.953125 C 39.375 59.835938 38.785156 59.6875 38.203125 59.511719 C 37.621094 59.335938 37.050781 59.128906 36.488281 58.898438 C 35.925781 58.664062 35.378906 58.40625 34.84375 58.121094 C 34.304688 57.832031 33.785156 57.519531 33.28125 57.183594 C 32.773438 56.84375 32.289062 56.484375 31.816406 56.097656 C 31.347656 55.710938 30.898438 55.304688 30.46875 54.875 C 30.039062 54.445312 29.628906 53.996094 29.246094 53.527344 C 28.859375 53.054688 28.496094 52.570312 28.160156 52.0625 C 27.824219 51.558594 27.511719 51.039062 27.222656 50.5 C 26.9375 49.964844 26.679688 49.417969 26.445312 48.855469 C 26.214844 48.292969 26.007812 47.722656 25.832031 47.140625 C 25.65625 46.558594 25.507812 45.96875 25.390625 45.375 C 25.269531 44.777344 25.183594 44.175781 25.121094 43.574219 C 25.0625 42.96875 25.03125 42.359375 25.03125 41.753906 C 25.03125 41.144531 25.0625 40.539062 25.121094 39.933594 C 25.183594 39.328125 25.269531 38.730469 25.390625 38.132812 C 25.507812 37.539062 25.65625 36.949219 25.832031 36.367188 C 26.007812 35.785156 26.214844 35.214844 26.445312 34.652344 C 26.679688 34.089844 26.9375 33.542969 27.222656 33.003906 C 27.511719 32.46875 27.824219 31.949219 28.160156 31.445312 C 28.496094 30.9375 28.859375 30.449219 29.246094 29.980469 C 29.628906 29.511719 30.039062 29.0625 30.46875 28.632812 C 30.898438 28.203125 31.347656 27.792969 31.816406 27.410156 C 32.289062 27.023438 32.773438 26.660156 33.28125 26.324219 C 33.785156 25.984375 34.304688 25.675781 34.84375 25.386719 C 35.378906 25.101562 35.925781 24.839844 36.488281 24.609375 C 37.050781 24.375 37.621094 24.171875 38.203125 23.996094 C 38.785156 23.820312 39.375 23.671875 39.96875 23.554688 C 40.566406 23.433594 41.167969 23.34375 41.769531 23.285156 C 42.375 23.226562 42.980469 23.195312 43.589844 23.195312 Z M 43.589844 23.195312 " fill-opacity="1" fill-rule="nonzero"/><path fill="#fa7275" d="M 84.746094 39.648438 C 83.445312 39.648438 82.277344 39.425781 81.238281 38.980469 C 80.199219 38.515625 79.382812 37.867188 78.789062 37.03125 C 78.195312 36.199219 77.898438 35.222656 77.898438 34.109375 L 81.292969 34.109375 C 81.367188 34.945312 81.691406 35.632812 82.265625 36.167969 C 82.863281 36.707031 83.6875 36.976562 84.746094 36.976562 C 85.839844 36.976562 86.695312 36.71875 87.304688 36.199219 C 87.917969 35.660156 88.222656 34.972656 88.222656 34.136719 C 88.222656 33.488281 88.03125 32.960938 87.640625 32.550781 C 87.269531 32.140625 86.796875 31.828125 86.21875 31.605469 C 85.664062 31.382812 84.882812 31.140625 83.882812 30.878906 C 82.621094 30.546875 81.589844 30.210938 80.792969 29.878906 C 80.011719 29.527344 79.34375 28.988281 78.789062 28.265625 C 78.230469 27.539062 77.953125 26.574219 77.953125 25.371094 C 77.953125 24.253906 78.230469 23.28125 78.789062 22.445312 C 79.34375 21.613281 80.125 20.972656 81.125 20.527344 C 82.128906 20.082031 83.289062 19.859375 84.605469 19.859375 C 86.480469 19.859375 88.011719 20.332031 89.199219 21.277344 C 90.40625 22.207031 91.074219 23.484375 91.203125 25.117188 L 87.695312 25.117188 C 87.640625 24.414062 87.304688 23.808594 86.695312 23.308594 C 86.082031 22.808594 85.273438 22.558594 84.273438 22.558594 C 83.363281 22.558594 82.621094 22.789062 82.042969 23.253906 C 81.46875 23.71875 81.183594 24.386719 81.183594 25.257812 C 81.183594 25.851562 81.359375 26.34375 81.710938 26.734375 C 82.082031 27.105469 82.546875 27.402344 83.101562 27.625 C 83.660156 27.847656 84.421875 28.085938 85.386719 28.347656 C 86.664062 28.699219 87.703125 29.054688 88.503906 29.40625 C 89.320312 29.757812 90.007812 30.304688 90.5625 31.046875 C 91.136719 31.769531 91.425781 32.746094 91.425781 33.96875 C 91.425781 34.953125 91.15625 35.882812 90.617188 36.753906 C 90.097656 37.625 89.328125 38.332031 88.308594 38.871094 C 87.304688 39.390625 86.117188 39.648438 84.746094 39.648438 Z M 98.871094 26.707031 L 98.871094 35.195312 C 98.871094 35.769531 99 36.1875 99.261719 36.449219 C 99.539062 36.6875 100.003906 36.808594 100.652344 36.808594 L 102.601562 36.808594 L 102.601562 39.453125 L 100.097656 39.453125 C 98.667969 39.453125 97.574219 39.121094 96.8125 38.453125 C 96.050781 37.785156 95.671875 36.699219 95.671875 35.195312 L 95.671875 26.707031 L 93.863281 26.707031 L 93.863281 24.117188 L 95.671875 24.117188 L 95.671875 20.304688 L 98.871094 20.304688 L 98.871094 24.117188 L 102.601562 24.117188 L 102.601562 26.707031 Z M 112.179688 39.703125 C 110.730469 39.703125 109.421875 39.378906 108.253906 38.730469 C 107.085938 38.0625 106.167969 37.132812 105.5 35.945312 C 104.832031 34.742188 104.496094 33.347656 104.496094 31.769531 C 104.496094 30.210938 104.839844 28.832031 105.527344 27.625 C 106.214844 26.417969 107.148438 25.488281 108.339844 24.839844 C 109.527344 24.191406 110.851562 23.867188 112.320312 23.867188 C 113.785156 23.867188 115.109375 24.191406 116.300781 24.839844 C 117.488281 25.488281 118.425781 26.417969 119.109375 27.625 C 119.796875 28.832031 120.140625 30.210938 120.140625 31.769531 C 120.140625 33.332031 119.789062 34.710938 119.082031 35.917969 C 118.378906 37.125 117.414062 38.0625 116.1875 38.730469 C 114.980469 39.378906 113.644531 39.703125 112.179688 39.703125 Z M 112.179688 36.949219 C 112.996094 36.949219 113.757812 36.753906 114.460938 36.363281 C 115.1875 35.976562 115.769531 35.390625 116.214844 34.609375 C 116.660156 33.832031 116.882812 32.886719 116.882812 31.769531 C 116.882812 30.65625 116.671875 29.722656 116.242188 28.960938 C 115.816406 28.179688 115.25 27.597656 114.546875 27.207031 C 113.839844 26.816406 113.078125 26.621094 112.261719 26.621094 C 111.445312 26.621094 110.683594 26.816406 109.980469 27.207031 C 109.292969 27.597656 108.746094 28.179688 108.339844 28.960938 C 107.929688 29.722656 107.726562 30.65625 107.726562 31.769531 C 107.726562 33.421875 108.144531 34.703125 108.976562 35.613281 C 109.832031 36.503906 110.898438 36.949219 112.179688 36.949219 Z M 126.449219 26.34375 C 126.914062 25.5625 127.527344 24.960938 128.289062 24.535156 C 129.066406 24.089844 129.984375 23.867188 131.042969 23.867188 L 131.042969 27.152344 L 130.238281 27.152344 C 128.992188 27.152344 128.046875 27.464844 127.398438 28.097656 C 126.765625 28.726562 126.449219 29.824219 126.449219 31.382812 L 126.449219 39.453125 L 123.277344 39.453125 L 123.277344 24.117188 L 126.449219 24.117188 Z M 148.019531 31.410156 C 148.019531 31.984375 147.980469 32.503906 147.90625 32.96875 L 136.1875 32.96875 C 136.28125 34.191406 136.734375 35.175781 137.550781 35.917969 C 138.367188 36.660156 139.371094 37.03125 140.558594 37.03125 C 142.265625 37.03125 143.472656 36.316406 144.175781 34.890625 L 147.601562 34.890625 C 147.136719 36.300781 146.292969 37.460938 145.066406 38.367188 C 143.859375 39.257812 142.359375 39.703125 140.558594 39.703125 C 139.09375 39.703125 137.773438 39.378906 136.605469 38.730469 C 135.453125 38.0625 134.546875 37.132812 133.878906 35.945312 C 133.226562 34.742188 132.902344 33.347656 132.902344 31.769531 C 132.902344 30.195312 133.21875 28.8125 133.847656 27.625 C 134.5 26.417969 135.398438 25.488281 136.550781 24.839844 C 137.71875 24.191406 139.054688 23.867188 140.558594 23.867188 C 142.003906 23.867188 143.296875 24.179688 144.425781 24.8125 C 145.558594 25.445312 146.441406 26.335938 147.070312 27.484375 C 147.703125 28.617188 148.019531 29.925781 148.019531 31.410156 Z M 144.703125 30.40625 C 144.6875 29.238281 144.269531 28.300781 143.453125 27.597656 C 142.636719 26.890625 141.625 26.539062 140.417969 26.539062 C 139.324219 26.539062 138.386719 26.890625 137.605469 27.597656 C 136.828125 28.28125 136.363281 29.21875 136.214844 30.40625 Z M 154.3125 20.109375 L 154.3125 39.453125 L 151.140625 39.453125 L 151.140625 20.109375 Z M 162.183594 26.707031 L 162.183594 35.195312 C 162.183594 35.769531 162.3125 36.1875 162.570312 36.449219 C 162.851562 36.6875 163.3125 36.808594 163.964844 36.808594 L 165.910156 36.808594 L 165.910156 39.453125 L 163.40625 39.453125 C 161.976562 39.453125 160.882812 39.121094 160.121094 38.453125 C 159.363281 37.785156 158.980469 36.699219 158.980469 35.195312 L 158.980469 26.707031 L 157.171875 26.707031 L 157.171875 24.117188 L 158.980469 24.117188 L 158.980469 20.304688 L 162.183594 20.304688 L 162.183594 24.117188 L 165.910156 24.117188 L 165.910156 26.707031 Z M 162.183594 26.707031 " fill-opacity="1" fill-rule="nonzero"/><g clip-path="url(#0f881db27b)"><path fill="#ffffff" d="M 75.613281 12.0625 L 167.277344 12.0625 L 167.277344 42.65625 L 75.613281 42.65625 Z M 75.613281 12.0625 " fill-opacity="1" fill-rule="nonzero"/></g><g fill="#fa7275" fill-opacity="1"><g transform="translate(69.713075, 39.279598)"><g><path d="M 5.828125 0.234375 C 4.960938 0.234375 4.132812 -0.0820312 3.34375 -0.71875 C 2.5625 -1.363281 1.929688 -2.242188 1.453125 -3.359375 C 0.972656 -4.472656 0.734375 -5.695312 0.734375 -7.03125 C 0.734375 -8.351562 0.960938 -9.546875 1.421875 -10.609375 C 1.878906 -11.671875 2.460938 -12.5 3.171875 -13.09375 C 3.890625 -13.6875 4.628906 -13.984375 5.390625 -13.984375 C 6.328125 -13.984375 7.082031 -13.785156 7.65625 -13.390625 C 8.238281 -13.003906 8.65625 -12.632812 8.90625 -12.28125 C 8.957031 -12.195312 9.003906 -12.125 9.046875 -12.0625 C 9.097656 -12 9.125 -11.929688 9.125 -11.859375 C 9.125 -11.785156 9.050781 -11.679688 8.90625 -11.546875 C 8.289062 -11.066406 7.851562 -10.648438 7.59375 -10.296875 C 7.457031 -10.117188 7.34375 -9.988281 7.25 -9.90625 C 7.15625 -9.820312 7.0625 -9.78125 6.96875 -9.78125 C 6.882812 -9.78125 6.78125 -9.847656 6.65625 -9.984375 C 6.375 -10.285156 6.15625 -10.5 6 -10.625 C 5.851562 -10.75 5.675781 -10.8125 5.46875 -10.8125 C 5.132812 -10.8125 4.804688 -10.671875 4.484375 -10.390625 C 4.160156 -10.117188 3.882812 -9.660156 3.65625 -9.015625 C 3.425781 -8.367188 3.3125 -7.539062 3.3125 -6.53125 C 3.3125 -5.550781 3.453125 -4.773438 3.734375 -4.203125 C 4.023438 -3.628906 4.351562 -3.226562 4.71875 -3 C 5.082031 -2.769531 5.398438 -2.65625 5.671875 -2.65625 C 5.898438 -2.65625 6.140625 -2.738281 6.390625 -2.90625 C 6.648438 -3.070312 6.875 -3.25 7.0625 -3.4375 C 7.082031 -3.46875 7.125 -3.515625 7.1875 -3.578125 C 7.25 -3.640625 7.304688 -3.671875 7.359375 -3.671875 C 7.421875 -3.671875 7.5 -3.644531 7.59375 -3.59375 L 9.28125 -2.65625 C 9.332031 -2.632812 9.414062 -2.597656 9.53125 -2.546875 C 9.644531 -2.503906 9.722656 -2.460938 9.765625 -2.421875 C 9.816406 -2.378906 9.84375 -2.328125 9.84375 -2.265625 C 9.84375 -2.203125 9.820312 -2.128906 9.78125 -2.046875 C 9.488281 -1.554688 9.03125 -1.050781 8.40625 -0.53125 C 7.78125 -0.0195312 6.921875 0.234375 5.828125 0.234375 Z M 5.828125 0.234375 "/></g></g></g><g fill="#fa7275" fill-opacity="1"><g transform="translate(79.943975, 39.279598)"><g><path d="M 3.09375 0.078125 C 2.570312 0.078125 2.175781 0 1.90625 -0.15625 C 1.644531 -0.3125 1.472656 -0.53125 1.390625 -0.8125 C 1.304688 -1.101562 1.265625 -1.492188 1.265625 -1.984375 L 1.296875 -3.21875 L 1.390625 -5.5625 L 1.453125 -7.3125 L 1.453125 -11.171875 C 1.453125 -11.648438 1.457031 -12.019531 1.46875 -12.28125 L 1.484375 -13.03125 L 1.484375 -13.890625 C 1.472656 -14.210938 1.5 -14.425781 1.5625 -14.53125 C 1.625 -14.644531 1.710938 -14.703125 1.828125 -14.703125 C 1.890625 -14.703125 1.941406 -14.695312 1.984375 -14.6875 L 2.03125 -14.6875 C 2.050781 -14.6875 2.09375 -14.6875 2.15625 -14.6875 C 2.226562 -14.695312 2.289062 -14.691406 2.34375 -14.671875 C 2.613281 -14.628906 2.75 -14.515625 2.75 -14.328125 C 2.75 -14.285156 2.734375 -14.132812 2.703125 -13.875 C 2.585938 -12.90625 2.535156 -11.695312 2.546875 -10.25 L 2.546875 -5.53125 L 2.5 -4.625 C 2.476562 -3.9375 2.46875 -3.398438 2.46875 -3.015625 L 2.46875 -2.625 C 2.46875 -2.195312 2.554688 -1.878906 2.734375 -1.671875 C 2.921875 -1.472656 3.171875 -1.375 3.484375 -1.375 C 3.628906 -1.375 3.753906 -1.382812 3.859375 -1.40625 C 3.960938 -1.425781 4.039062 -1.4375 4.09375 -1.4375 C 4.238281 -1.4375 4.3125 -1.335938 4.3125 -1.140625 L 4.4375 -0.3125 C 4.25 -0.144531 4.0625 -0.0390625 3.875 0 C 3.6875 0.0507812 3.425781 0.078125 3.09375 0.078125 Z M 3.09375 0.078125 "/></g></g></g><g fill="#fa7275" fill-opacity="1"><g transform="translate(84.473389, 39.279598)"><g><path d="M 5.171875 0.4375 C 3.421875 0.4375 2.253906 -0.234375 1.671875 -1.578125 C 1.085938 -2.921875 0.796875 -4.363281 0.796875 -5.90625 C 0.796875 -7.382812 1.019531 -8.570312 1.46875 -9.46875 C 1.914062 -10.363281 2.460938 -10.988281 3.109375 -11.34375 C 3.753906 -11.707031 4.398438 -11.890625 5.046875 -11.890625 C 6.265625 -11.890625 7.1875 -11.566406 7.8125 -10.921875 C 8.4375 -10.273438 8.832031 -9.507812 9 -8.625 C 9.175781 -7.75 9.265625 -6.765625 9.265625 -5.671875 C 9.265625 -4.773438 9.113281 -3.851562 8.8125 -2.90625 C 8.519531 -1.957031 8.0625 -1.160156 7.4375 -0.515625 C 6.820312 0.117188 6.066406 0.4375 5.171875 0.4375 Z M 5.03125 -3.421875 C 5.46875 -3.421875 5.785156 -3.625 5.984375 -4.03125 C 6.191406 -4.445312 6.296875 -4.945312 6.296875 -5.53125 C 6.296875 -6.28125 6.195312 -6.8125 6 -7.125 C 5.8125 -7.4375 5.523438 -7.59375 5.140625 -7.59375 C 4.328125 -7.59375 3.921875 -6.847656 3.921875 -5.359375 C 3.921875 -4.804688 3.992188 -4.34375 4.140625 -3.96875 C 4.285156 -3.601562 4.582031 -3.421875 5.03125 -3.421875 Z M 5.03125 -3.421875 "/></g></g></g><g fill="#fa7275" fill-opacity="1"><g transform="translate(94.525498, 39.279598)"><g><path d="M 8.921875 0.171875 C 8.191406 0.148438 7.695312 0.144531 7.4375 0.15625 C 7.269531 0.164062 7.171875 0.128906 7.140625 0.046875 C 7.109375 -0.0234375 7.09375 -0.113281 7.09375 -0.21875 C 7.101562 -0.332031 7.109375 -0.421875 7.109375 -0.484375 L 7.140625 -0.75 C 6.523438 -0.445312 6.019531 -0.222656 5.625 -0.078125 C 5.226562 0.0546875 4.71875 0.125 4.09375 0.125 C 3.488281 0.125 2.984375 0.03125 2.578125 -0.15625 C 2.171875 -0.351562 1.796875 -0.691406 1.453125 -1.171875 C 1.210938 -1.460938 1.039062 -1.898438 0.9375 -2.484375 C 0.84375 -3.066406 0.796875 -3.578125 0.796875 -4.015625 L 0.796875 -10.8125 C 0.796875 -10.96875 0.816406 -11.078125 0.859375 -11.140625 C 0.910156 -11.203125 0.988281 -11.242188 1.09375 -11.265625 C 1.132812 -11.273438 1.207031 -11.28125 1.3125 -11.28125 L 1.90625 -11.265625 C 2.132812 -11.265625 2.25 -11.15625 2.25 -10.9375 L 2.1875 -8.09375 C 2.144531 -7.289062 2.125 -6.640625 2.125 -6.140625 L 2.109375 -4.75 C 2.109375 -3.53125 2.191406 -2.734375 2.359375 -2.359375 C 2.535156 -2.015625 2.691406 -1.757812 2.828125 -1.59375 C 2.972656 -1.425781 3.160156 -1.304688 3.390625 -1.234375 C 3.617188 -1.171875 3.953125 -1.140625 4.390625 -1.140625 C 4.859375 -1.140625 5.335938 -1.226562 5.828125 -1.40625 C 6.328125 -1.582031 6.773438 -1.789062 7.171875 -2.03125 C 7.210938 -2.976562 7.234375 -4.15625 7.234375 -5.5625 C 7.234375 -6.8125 7.207031 -8.175781 7.15625 -9.65625 L 7.109375 -11.109375 C 7.109375 -11.265625 7.222656 -11.34375 7.453125 -11.34375 L 7.875 -11.34375 C 7.976562 -11.34375 8.109375 -11.335938 8.265625 -11.328125 C 8.421875 -11.328125 8.597656 -11.332031 8.796875 -11.34375 L 8.90625 -11.34375 C 9.050781 -11.34375 9.125 -11.285156 9.125 -11.171875 L 9.125 -10.453125 L 9.140625 -9.5 C 9.203125 -7.394531 9.226562 -6.179688 9.21875 -5.859375 L 9.21875 -0.5625 C 9.226562 -0.476562 9.234375 -0.367188 9.234375 -0.234375 C 9.234375 -0.078125 9.210938 0.0234375 9.171875 0.078125 C 9.128906 0.140625 9.046875 0.171875 8.921875 0.171875 Z M 8.921875 0.171875 "/></g></g></g><g fill="#fa7275" fill-opacity="1"><g transform="translate(104.637205, 39.279598)"><g><path d="M 5.015625 0.21875 C 4.335938 0.21875 3.726562 0.0664062 3.1875 -0.234375 C 2.65625 -0.546875 2.203125 -1 1.828125 -1.59375 C 1.140625 -2.707031 0.796875 -4.171875 0.796875 -5.984375 C 0.796875 -6.816406 0.894531 -7.535156 1.09375 -8.140625 C 1.289062 -8.742188 1.601562 -9.316406 2.03125 -9.859375 C 2.425781 -10.359375 2.851562 -10.734375 3.3125 -10.984375 C 3.820312 -11.253906 4.328125 -11.390625 4.828125 -11.390625 C 5.472656 -11.390625 5.988281 -11.335938 6.375 -11.234375 C 6.757812 -11.128906 7.007812 -11.03125 7.125 -10.9375 C 7.238281 -10.84375 7.394531 -10.695312 7.59375 -10.5 L 7.625 -13.765625 C 7.625 -14.117188 7.65625 -14.367188 7.71875 -14.515625 C 7.789062 -14.671875 7.90625 -14.75 8.0625 -14.75 L 8.9375 -14.734375 C 9.164062 -14.734375 9.335938 -14.742188 9.453125 -14.765625 C 9.628906 -14.796875 9.75 -14.71875 9.8125 -14.53125 C 9.882812 -14.351562 9.921875 -14.160156 9.921875 -13.953125 L 9.875 -0.359375 C 9.875 -0.179688 9.835938 -0.0625 9.765625 0 C 9.691406 0.0625 9.582031 0.09375 9.4375 0.09375 C 8.976562 0.0703125 8.503906 0.0625 8.015625 0.0625 C 7.796875 0.0625 7.644531 0.0351562 7.5625 -0.015625 C 7.476562 -0.0664062 7.4375 -0.191406 7.4375 -0.390625 L 7.4375 -0.796875 C 7.039062 -0.492188 6.640625 -0.25 6.234375 -0.0625 C 5.835938 0.125 5.429688 0.21875 5.015625 0.21875 Z M 4.953125 -1.15625 C 5.441406 -1.15625 5.878906 -1.242188 6.265625 -1.421875 C 6.648438 -1.609375 6.941406 -1.851562 7.140625 -2.15625 C 7.347656 -2.46875 7.453125 -2.78125 7.453125 -3.09375 C 7.453125 -3.414062 7.476562 -3.878906 7.53125 -4.484375 L 7.578125 -5.359375 C 7.578125 -5.640625 7.5625 -6.003906 7.53125 -6.453125 C 7.507812 -6.984375 7.5 -7.507812 7.5 -8.03125 C 7.5 -8.375 7.367188 -8.675781 7.109375 -8.9375 C 6.859375 -9.207031 6.546875 -9.414062 6.171875 -9.5625 C 5.804688 -9.707031 5.460938 -9.78125 5.140625 -9.78125 C 4.734375 -9.78125 4.34375 -9.664062 3.96875 -9.4375 C 3.601562 -9.195312 3.300781 -8.894531 3.0625 -8.53125 C 2.78125 -8.09375 2.570312 -7.664062 2.4375 -7.25 C 2.3125 -6.84375 2.25 -6.367188 2.25 -5.828125 C 2.25 -4.472656 2.457031 -3.382812 2.875 -2.5625 C 3.34375 -1.625 4.035156 -1.15625 4.953125 -1.15625 Z M 4.953125 -1.15625 "/></g></g></g><g fill="#fa7275" fill-opacity="1"><g transform="translate(116.060056, 39.279598)"><g><path d="M 4.21875 -0.015625 C 4 -0.015625 3.859375 -0.0703125 3.796875 -0.1875 C 3.742188 -0.300781 3.695312 -0.5 3.65625 -0.78125 C 3.5 -1.4375 3.019531 -3.253906 2.21875 -6.234375 C 2.113281 -6.648438 1.753906 -8.21875 1.140625 -10.9375 L 0.484375 -13.71875 C 0.453125 -13.820312 0.4375 -13.882812 0.4375 -13.90625 C 0.4375 -14.019531 0.507812 -14.078125 0.65625 -14.078125 C 0.738281 -14.078125 0.832031 -14.066406 0.9375 -14.046875 C 1.039062 -14.023438 1.148438 -14.015625 1.265625 -14.015625 L 2.265625 -14.046875 L 3.484375 -14.09375 C 3.710938 -14.113281 3.867188 -14.070312 3.953125 -13.96875 C 4.035156 -13.875 4.101562 -13.707031 4.15625 -13.46875 C 4.195312 -13.300781 4.304688 -12.585938 4.484375 -11.328125 L 4.625 -10.359375 C 4.695312 -9.929688 4.878906 -9.003906 5.171875 -7.578125 L 5.609375 -5.609375 L 5.859375 -6.78125 C 5.984375 -7.3125 6.09375 -7.914062 6.1875 -8.59375 C 6.195312 -8.769531 6.253906 -9.09375 6.359375 -9.5625 C 6.472656 -10.039062 6.5625 -10.398438 6.625 -10.640625 C 7.019531 -12.109375 7.203125 -13.019531 7.171875 -13.375 C 7.148438 -13.71875 7.179688 -13.925781 7.265625 -14 C 7.359375 -14.082031 7.46875 -14.117188 7.59375 -14.109375 C 7.726562 -14.109375 7.8125 -14.109375 7.84375 -14.109375 C 9.101562 -14.109375 9.894531 -14.085938 10.21875 -14.046875 C 10.363281 -14.035156 10.460938 -14.007812 10.515625 -13.96875 C 10.566406 -13.925781 10.59375 -13.875 10.59375 -13.8125 C 10.59375 -13.75 10.570312 -13.644531 10.53125 -13.5 C 10.46875 -13.320312 10.34375 -12.816406 10.15625 -11.984375 L 10.0625 -11.546875 C 9.570312 -9.046875 9.1875 -7.296875 8.90625 -6.296875 C 8.695312 -5.453125 8.460938 -4.195312 8.203125 -2.53125 C 7.984375 -1.238281 7.859375 -0.5625 7.828125 -0.5 C 7.785156 -0.363281 7.742188 -0.269531 7.703125 -0.21875 C 7.671875 -0.175781 7.613281 -0.15625 7.53125 -0.15625 L 7.21875 -0.171875 L 5.890625 -0.09375 C 4.953125 -0.0390625 4.394531 -0.015625 4.21875 -0.015625 Z M 4.21875 -0.015625 "/></g></g></g><g fill="#fa7275" fill-opacity="1"><g transform="translate(126.906803, 39.279598)"><g><path d="M 3.796875 0.21875 C 2.828125 0.21875 2.050781 0.0234375 1.46875 -0.359375 C 0.882812 -0.742188 0.59375 -1.425781 0.59375 -2.40625 C 0.664062 -3.039062 1.132812 -3.507812 2 -3.8125 C 2.875 -4.113281 3.859375 -4.265625 4.953125 -4.265625 C 5.296875 -4.265625 5.707031 -4.296875 6.1875 -4.359375 C 6.65625 -4.410156 7.09375 -4.4375 7.5 -4.4375 C 7.4375 -5.863281 7.34375 -6.984375 7.21875 -7.796875 C 7.09375 -8.609375 6.878906 -9.21875 6.578125 -9.625 C 6.285156 -10.039062 5.867188 -10.25 5.328125 -10.25 C 4.929688 -10.25 4.550781 -10.15625 4.1875 -9.96875 C 3.832031 -9.789062 3.390625 -9.503906 2.859375 -9.109375 C 2.421875 -8.785156 2.203125 -8.625 2.203125 -8.625 C 2.191406 -8.625 2.148438 -8.597656 2.078125 -8.546875 C 2.003906 -8.503906 1.9375 -8.488281 1.875 -8.5 C 1.75 -8.53125 1.6875 -8.59375 1.6875 -8.6875 C 1.632812 -8.757812 1.570312 -8.9375 1.5 -9.21875 C 1.425781 -9.5 1.390625 -9.695312 1.390625 -9.8125 C 1.390625 -9.894531 1.46875 -9.988281 1.625 -10.09375 C 2.300781 -10.601562 2.875 -10.976562 3.34375 -11.21875 C 3.8125 -11.46875 4.210938 -11.625 4.546875 -11.6875 C 4.890625 -11.75 5.289062 -11.78125 5.75 -11.78125 C 7.070312 -11.78125 7.960938 -11.351562 8.421875 -10.5 C 8.878906 -9.644531 9.109375 -8.507812 9.109375 -7.09375 C 9.109375 -6.71875 9.09375 -6.210938 9.0625 -5.578125 C 9.0625 -5.203125 9.035156 -4.640625 8.984375 -3.890625 L 8.96875 -3.421875 L 8.984375 -2.25 C 9.003906 -1.71875 9.015625 -1.3125 9.015625 -1.03125 L 9 -0.4375 C 8.976562 -0.132812 8.859375 0.015625 8.640625 0.015625 L 8.484375 0 L 7.671875 0 C 7.617188 0 7.566406 -0.0195312 7.515625 -0.0625 C 7.472656 -0.113281 7.453125 -0.171875 7.453125 -0.234375 L 7.453125 -0.390625 C 6.660156 -0.171875 6.023438 -0.015625 5.546875 0.078125 C 5.066406 0.171875 4.484375 0.21875 3.796875 0.21875 Z M 3.8125 -0.921875 C 5.226562 -0.921875 6.441406 -1.15625 7.453125 -1.625 L 7.515625 -3.484375 C 6.890625 -3.535156 6.351562 -3.5625 5.90625 -3.5625 L 4.734375 -3.53125 C 4.097656 -3.53125 3.523438 -3.40625 3.015625 -3.15625 C 2.515625 -2.914062 2.242188 -2.578125 2.203125 -2.140625 C 2.203125 -1.671875 2.3125 -1.347656 2.53125 -1.171875 C 2.757812 -1.003906 3.1875 -0.921875 3.8125 -0.921875 Z M 3.8125 -0.921875 "/></g></g></g><g fill="#fa7275" fill-opacity="1"><g transform="translate(137.435688, 39.279598)"><g><path d="M 8.921875 0.171875 C 8.191406 0.148438 7.695312 0.144531 7.4375 0.15625 C 7.269531 0.164062 7.171875 0.128906 7.140625 0.046875 C 7.109375 -0.0234375 7.09375 -0.113281 7.09375 -0.21875 C 7.101562 -0.332031 7.109375 -0.421875 7.109375 -0.484375 L 7.140625 -0.75 C 6.523438 -0.445312 6.019531 -0.222656 5.625 -0.078125 C 5.226562 0.0546875 4.71875 0.125 4.09375 0.125 C 3.488281 0.125 2.984375 0.03125 2.578125 -0.15625 C 2.171875 -0.351562 1.796875 -0.691406 1.453125 -1.171875 C 1.210938 -1.460938 1.039062 -1.898438 0.9375 -2.484375 C 0.84375 -3.066406 0.796875 -3.578125 0.796875 -4.015625 L 0.796875 -10.8125 C 0.796875 -10.96875 0.816406 -11.078125 0.859375 -11.140625 C 0.910156 -11.203125 0.988281 -11.242188 1.09375 -11.265625 C 1.132812 -11.273438 1.207031 -11.28125 1.3125 -11.28125 L 1.90625 -11.265625 C 2.132812 -11.265625 2.25 -11.15625 2.25 -10.9375 L 2.1875 -8.09375 C 2.144531 -7.289062 2.125 -6.640625 2.125 -6.140625 L 2.109375 -4.75 C 2.109375 -3.53125 2.191406 -2.734375 2.359375 -2.359375 C 2.535156 -2.015625 2.691406 -1.757812 2.828125 -1.59375 C 2.972656 -1.425781 3.160156 -1.304688 3.390625 -1.234375 C 3.617188 -1.171875 3.953125 -1.140625 4.390625 -1.140625 C 4.859375 -1.140625 5.335938 -1.226562 5.828125 -1.40625 C 6.328125 -1.582031 6.773438 -1.789062 7.171875 -2.03125 C 7.210938 -2.976562 7.234375 -4.15625 7.234375 -5.5625 C 7.234375 -6.8125 7.207031 -8.175781 7.15625 -9.65625 L 7.109375 -11.109375 C 7.109375 -11.265625 7.222656 -11.34375 7.453125 -11.34375 L 7.875 -11.34375 C 7.976562 -11.34375 8.109375 -11.335938 8.265625 -11.328125 C 8.421875 -11.328125 8.597656 -11.332031 8.796875 -11.34375 L 8.90625 -11.34375 C 9.050781 -11.34375 9.125 -11.285156 9.125 -11.171875 L 9.125 -10.453125 L 9.140625 -9.5 C 9.203125 -7.394531 9.226562 -6.179688 9.21875 -5.859375 L 9.21875 -0.5625 C 9.226562 -0.476562 9.234375 -0.367188 9.234375 -0.234375 C 9.234375 -0.078125 9.210938 0.0234375 9.171875 0.078125 C 9.128906 0.140625 9.046875 0.171875 8.921875 0.171875 Z M 8.921875 0.171875 "/></g></g></g><g fill="#fa7275" fill-opacity="1"><g transform="translate(147.547394, 39.279598)"><g><path d="M 3.09375 0.078125 C 2.570312 0.078125 2.175781 0 1.90625 -0.15625 C 1.644531 -0.3125 1.472656 -0.53125 1.390625 -0.8125 C 1.304688 -1.101562 1.265625 -1.492188 1.265625 -1.984375 L 1.296875 -3.21875 L 1.390625 -5.5625 L 1.453125 -7.3125 L 1.453125 -11.171875 C 1.453125 -11.648438 1.457031 -12.019531 1.46875 -12.28125 L 1.484375 -13.03125 L 1.484375 -13.890625 C 1.472656 -14.210938 1.5 -14.425781 1.5625 -14.53125 C 1.625 -14.644531 1.710938 -14.703125 1.828125 -14.703125 C 1.890625 -14.703125 1.941406 -14.695312 1.984375 -14.6875 L 2.03125 -14.6875 C 2.050781 -14.6875 2.09375 -14.6875 2.15625 -14.6875 C 2.226562 -14.695312 2.289062 -14.691406 2.34375 -14.671875 C 2.613281 -14.628906 2.75 -14.515625 2.75 -14.328125 C 2.75 -14.285156 2.734375 -14.132812 2.703125 -13.875 C 2.585938 -12.90625 2.535156 -11.695312 2.546875 -10.25 L 2.546875 -5.53125 L 2.5 -4.625 C 2.476562 -3.9375 2.46875 -3.398438 2.46875 -3.015625 L 2.46875 -2.625 C 2.46875 -2.195312 2.554688 -1.878906 2.734375 -1.671875 C 2.921875 -1.472656 3.171875 -1.375 3.484375 -1.375 C 3.628906 -1.375 3.753906 -1.382812 3.859375 -1.40625 C 3.960938 -1.425781 4.039062 -1.4375 4.09375 -1.4375 C 4.238281 -1.4375 4.3125 -1.335938 4.3125 -1.140625 L 4.4375 -0.3125 C 4.25 -0.144531 4.0625 -0.0390625 3.875 0 C 3.6875 0.0507812 3.425781 0.078125 3.09375 0.078125 Z M 3.09375 0.078125 "/></g></g></g><g fill="#fa7275" fill-opacity="1"><g transform="translate(152.076808, 39.279598)"><g><path d="M 3.09375 0.078125 C 2.570312 0.078125 2.175781 0 1.90625 -0.15625 C 1.644531 -0.3125 1.472656 -0.53125 1.390625 -0.8125 C 1.304688 -1.101562 1.265625 -1.492188 1.265625 -1.984375 L 1.296875 -3.21875 L 1.390625 -5.5625 L 1.453125 -7.3125 L 1.453125 -10.21875 C 0.816406 -10.21875 0.453125 -10.320312 0.359375 -10.53125 C 0.316406 -10.632812 0.296875 -10.75 0.296875 -10.875 C 0.296875 -11.007812 0.304688 -11.132812 0.328125 -11.25 C 0.347656 -11.363281 0.359375 -11.476562 0.359375 -11.59375 C 0.597656 -11.570312 0.960938 -11.5625 1.453125 -11.5625 L 1.46875 -11.640625 L 1.484375 -12.40625 L 1.484375 -13.25 C 1.472656 -13.570312 1.5 -13.789062 1.5625 -13.90625 C 1.625 -14.019531 1.710938 -14.078125 1.828125 -14.078125 C 1.890625 -14.078125 1.941406 -14.066406 1.984375 -14.046875 L 2.03125 -14.046875 C 2.050781 -14.046875 2.09375 -14.050781 2.15625 -14.0625 C 2.226562 -14.070312 2.289062 -14.0625 2.34375 -14.03125 C 2.613281 -13.988281 2.75 -13.875 2.75 -13.6875 C 2.75 -13.65625 2.734375 -13.503906 2.703125 -13.234375 C 2.640625 -12.773438 2.59375 -12.21875 2.5625 -11.5625 L 4.46875 -11.5625 C 4.570312 -11.5625 4.65625 -11.472656 4.71875 -11.296875 C 4.789062 -11.117188 4.828125 -10.929688 4.828125 -10.734375 C 4.828125 -10.460938 4.769531 -10.3125 4.65625 -10.28125 C 4.394531 -10.195312 4.085938 -10.15625 3.734375 -10.15625 C 3.421875 -10.15625 3.023438 -10.179688 2.546875 -10.234375 L 2.546875 -5.53125 L 2.53125 -4.734375 C 2.488281 -4.210938 2.46875 -3.675781 2.46875 -3.125 L 2.46875 -2.71875 C 2.46875 -2.300781 2.554688 -1.988281 2.734375 -1.78125 C 2.921875 -1.570312 3.171875 -1.46875 3.484375 -1.46875 C 3.773438 -1.46875 4.023438 -1.476562 4.234375 -1.5 C 4.441406 -1.519531 4.59375 -1.53125 4.6875 -1.53125 C 4.832031 -1.53125 4.90625 -1.269531 4.90625 -0.75 L 4.984375 -0.4375 C 5.023438 -0.34375 5.019531 -0.289062 4.96875 -0.28125 C 4.539062 -0.125 4.222656 -0.0234375 4.015625 0.015625 C 3.816406 0.0546875 3.507812 0.078125 3.09375 0.078125 Z M 3.09375 0.078125 "/></g></g></g></svg>